<?xml version="1.0" standalone="no"?>
<!DOCTYPE svg PUBLIC "-//W3C//DTD SVG 1.1//EN" "http://www.w3.org/Graphics/SVG/1.1/DTD/svg11.dtd" >
<svg xmlns="http://www.w3.org/2000/svg">
<metadata></metadata>
<defs>
<font id="syntaxregular" horiz-adv-x="1024" >
<font-face units-per-em="2048" ascent="1638" descent="-410" />
<missing-glyph horiz-adv-x="614" />
<glyph horiz-adv-x="2048" />
<glyph horiz-adv-x="2048" />
<glyph unicode="&#xd;" horiz-adv-x="614" />
<glyph unicode=" "  horiz-adv-x="614" />
<glyph unicode="&#x09;" horiz-adv-x="614" />
<glyph unicode="&#xa0;" horiz-adv-x="614" />
<glyph unicode="!" horiz-adv-x="557" d="M190 0v182h175v-182h-175zM197 332l4 1040h166l-5 -1040h-165z" />
<glyph unicode="&#x22;" horiz-adv-x="704" d="M94 1366h195l-31 -547h-135zM416 1366h194l-28 -547h-136z" />
<glyph unicode="#" horiz-adv-x="1251" d="M131 469l12 90h250l31 225h-248l12 93h250l51 366h95l-52 -366h236l51 366h94l-51 -366h256l-12 -93h-258l-31 -225h258l-14 -90h-256l-57 -399h-95l58 399h-236l-57 -399h-94l57 399h-250zM487 559h236l33 225h-238z" />
<glyph unicode="$" horiz-adv-x="1146" d="M172 135l78 113q143 -109 282 -119l3 500l-64 24q-276 106 -276 340q0 143 93 237.5t251 115.5v131h88v-131q98 -4 166.5 -29t171.5 -90l-72 -105q-143 104 -268 105v-471l43 -17q168 -63 238.5 -147t70.5 -215q0 -147 -96.5 -245.5t-259.5 -119.5v-172h-89v172 q-106 2 -188 33q-61 23 -172 90zM348 1006q0 -66 41 -124.5t100 -76.5l48 -14v432q-84 -16 -136.5 -76t-52.5 -141zM621 135q90 16 143 77.5t53 147.5q0 74 -45 137.5t-113 84.5l-38 12v-459z" />
<glyph unicode="%" horiz-adv-x="1593" d="M59 1069q0 137 90.5 225t231.5 88q139 0 227 -89t88 -230q0 -131 -89 -217t-228 -86q-141 0 -230.5 86t-89.5 223zM207 1067q0 -92 46 -144.5t126 -52.5q76 0 123 53.5t47 139.5q0 205 -172 205q-170 0 -170 -201zM317 -10l879 1425l78 -43l-881 -1427zM903 283 q0 139 89 226t233 87q139 0 227 -89.5t88 -230.5q0 -131 -89 -217t-228 -86q-143 0 -231.5 85t-88.5 225zM1051 281q0 -92 46 -144.5t126 -52.5q76 0 123 53t47 139q0 205 -172 205q-170 0 -170 -200z" />
<glyph unicode="&#x26;" horiz-adv-x="1327" d="M111 399q0 135 73.5 238.5t241.5 200.5q-135 143 -135 274q0 117 80 193.5t200 76.5q115 0 190 -68.5t75 -172.5q0 -86 -48.5 -149.5t-181.5 -160.5l398 -411q29 127 28 299v53h142v-88q0 -184 -70 -367l223 -237l-119 -98l-178 196q-106 -109 -204.5 -152.5 t-235.5 -43.5q-213 0 -346 115.5t-133 301.5zM283 410q0 -125 90 -210t221 -85q197 -1 340 161l-434 476q-59 -51 -148 -142q-70 -86 -69 -200zM434 1133q0 -68 39 -121l68 -94l82 69q79 68 79 146q0 61 -36.5 98t-98.5 37q-57 0 -95 -39t-38 -96z" />
<glyph unicode="'" horiz-adv-x="387" d="M94 1366h199l-29 -547h-139z" />
<glyph unicode="(" horiz-adv-x="694" d="M113 571q0 260 89 482.5t285 447.5l91 -84q-164 -205 -238 -405.5t-74 -438.5q0 -516 291 -870l-100 -90q-344 406 -344 958z" />
<glyph unicode=")" horiz-adv-x="694" d="M121 -301q164 205 237.5 404.5t73.5 437.5q0 514 -291 872l101 88q344 -405 344 -958q0 -260 -89 -481.5t-286 -448.5z" />
<glyph unicode="*" horiz-adv-x="854" d="M100 1116l31 94l252 -80v263h100v-263l248 80l33 -94l-250 -82l156 -213l-82 -61l-154 215l-155 -215l-84 61l157 213z" />
<glyph unicode="+" d="M43 655v95h420v397h98v-397h420v-95h-420v-397h-98v397h-420z" />
<glyph unicode="," horiz-adv-x="544" d="M176 -289l2 479h205l-141 -479h-66z" />
<glyph unicode="-" horiz-adv-x="454" d="M2 444v148h455v-148h-455z" />
<glyph unicode="." horiz-adv-x="544" d="M182 0v190h180v-190h-180z" />
<glyph unicode="/" horiz-adv-x="950" d="M39 -272l733 1687l102 -43l-731 -1696z" />
<glyph unicode="0" horiz-adv-x="1146" d="M84 678q0 328 135 517t371 189q223 0 351 -186t128 -510t-134 -515t-360 -191q-229 0 -360 185t-131 511zM256 666q0 -260 85 -408.5t234 -148.5q152 0 236 153.5t84 425.5q0 567 -317 567q-156 0 -239 -152.5t-83 -436.5z" />
<glyph unicode="1" horiz-adv-x="1146" d="M217 975l436 391h133l-6 -1366h-166l7 1028q0 59 8 146q-57 -63 -86 -89l-236 -211z" />
<glyph unicode="2" horiz-adv-x="1146" d="M90 104q373 303 529.5 499t156.5 358q0 123 -79 197.5t-205 74.5q-137 0 -297 -127l-82 108q119 90 207 124t202 34q195 0 311.5 -107.5t116.5 -285.5q0 -133 -65.5 -256t-227.5 -291q-182 -190 -346 -311q100 18 164 18h496v-139h-846z" />
<glyph unicode="3" horiz-adv-x="1146" d="M121 92l65 123q180 -98 312 -98q137 0 224 74.5t87 193.5q0 258 -367 258q-29 0 -135 -8v137q39 -2 88 -2q399 0 400 250q0 102 -79 166.5t-204 64.5q-129 0 -295 -94l-70 111q199 117 398 116q186 0 303 -96t117 -250q0 -238 -267 -325q283 -45 283 -328 q0 -176 -136 -289.5t-351 -113.5q-158 0 -373 110z" />
<glyph unicode="4" horiz-adv-x="1146" d="M78 467l635 899h174l-4 -885h202v-127h-204v-354h-158v354h-608zM240 473q98 8 120 8h365l2 545q0 91 12 191q-37 -68 -100 -173l-297 -428q-33 -45 -102 -143z" />
<glyph unicode="5" horiz-adv-x="1146" d="M125 641l151 725h689v-137h-568l-73 -309q-12 -55 -33 -107q127 125 309 125q184 0 308 -119t124 -299q0 -221 -168 -373.5t-411 -152.5q-152 0 -318 61l47 129q137 -53 256 -53q174 0 294 109.5t120 269.5q0 127 -85 209t-218 82q-104 0 -184 -53.5t-103 -137.5z" />
<glyph unicode="6" horiz-adv-x="1146" d="M104 567q0 195 78 370t215 284q201 160 545 159q49 0 78 -2l-12 -133q-74 4 -86 4q-584 0 -660 -661q133 238 389 237q176 0 293 -115.5t117 -289.5q0 -190 -130 -317.5t-325 -127.5q-223 0 -362.5 164t-139.5 428zM279 414q94 -303 329 -303q121 0 203 85t82 210 q0 115 -80 196.5t-192 81.5q-172 0 -281 -152q-20 -29 -39.5 -70.5t-21.5 -47.5z" />
<glyph unicode="7" horiz-adv-x="1146" d="M111 1225v141h884l64 -94l-680 -1284l-141 75l622 1162h-749z" />
<glyph unicode="8" horiz-adv-x="1146" d="M111 352q0 256 311 350q-279 96 -279 328q0 156 126 255t323 99q182 0 300 -94t118 -239q0 -244 -279 -340q166 -59 237.5 -141.5t71.5 -211.5q0 -168 -131 -272t-342 -104q-209 0 -332.5 100t-123.5 270zM281 346q0 -102 84 -169.5t215 -67.5q125 0 205.5 69.5 t80.5 175.5q0 141 -168 232q-18 10 -75 35q-47 20 -50 20q-172 -63 -232 -123.5t-60 -171.5zM311 1030q0 -129 148 -213q14 -8 69 -33q29 -12 43 -18q145 51 208 112.5t63 153.5q0 100 -74 162.5t-190 62.5q-113 0 -190 -65.5t-77 -161.5z" />
<glyph unicode="9" horiz-adv-x="1146" d="M86 954q0 184 129 307t326 123q219 0 360 -163.5t141 -419.5q0 -358 -220 -583.5t-572 -225.5q-70 0 -141 6l10 127q55 -4 114 -4q281 0 447 165t201 478q-147 -227 -379 -227q-176 0 -296 119.5t-120 297.5zM254 958q0 -117 80 -196.5t198 -79.5q158 0 263 135 q16 20 45 70q20 33 22 45q-53 317 -323 317q-121 0 -203 -84t-82 -207z" />
<glyph unicode=":" horiz-adv-x="544" d="M182 0v190h180v-190h-180zM182 770v191h180v-191h-180z" />
<glyph unicode=";" horiz-adv-x="544" d="M176 -289l2 479h205l-141 -479h-66zM180 770v191h180v-191h-180z" />
<glyph unicode="&#x3c;" d="M68 608v156l886 426v-180l-694 -324l694 -324v-180z" />
<glyph unicode="=" d="M43 512v92h938v-92h-938zM43 803v92h938v-92h-938z" />
<glyph unicode="&#x3e;" d="M70 182v183l694 323l-694 322v180l886 -426v-156z" />
<glyph unicode="?" horiz-adv-x="962" d="M47 1225q178 168 389 168q188 0 312 -107.5t124 -271.5q0 -139 -100 -252q2 -2 -84 -74l-45 -35l-45 -37q-68 -55 -81 -94t-15 -186h-166q0 162 23.5 220t91.5 116l43 37l43 34l43 37q125 106 125 232q0 106 -80 178t-197 72q-147 0 -297 -129zM336 0v184h178v-184h-178z " />
<glyph unicode="@" horiz-adv-x="1406" d="M57 662q0 285 199 484.5t483 199.5q258 0 435.5 -162t177.5 -398q0 -233 -176 -380q-125 -104 -250 -105q-121 0 -140 111q-109 -109 -217 -109q-100 0 -159.5 68.5t-59.5 185.5q0 174 121 321.5t266 147.5q131 0 187 -127l34 96h99l-164 -481q-18 -53 -19 -84 q0 -70 76 -70q123 0 226.5 130.5t103.5 285.5q0 217 -153.5 360.5t-387.5 143.5q-254 0 -430 -179t-176 -439q0 -256 174 -433.5t426 -177.5q158 0 298 80t216 211h78q-72 -160 -236.5 -259t-357.5 -99q-281 0 -477.5 197.5t-196.5 480.5zM457 524q0 -162 123 -162 q150 0 231 226l47 129q25 67 25 108q0 57 -36 98.5t-87 41.5q-111 0 -207 -139.5t-96 -301.5z" />
<glyph unicode="A" horiz-adv-x="1300" d="M14 25l574 1341h155l545 -1341l-166 -54l-188 484h-561l-205 -484zM430 598h447l-119 307q-70 180 -101 318q-14 -63 -41 -144q-31 -92 -63 -174z" />
<glyph unicode="B" horiz-adv-x="1099" d="M170 0l6 1366q174 8 281 8q203 0 307 -43q88 -37 141 -117.5t53 -181.5q0 -256 -251 -315q135 -27 209.5 -115t74.5 -223q0 -217 -172 -316q-80 -47 -192 -57q-51 -6 -205 -6h-252zM338 129h88q150 0 187.5 5t86.5 32q119 65 119 219q0 139 -106 211q-82 55 -287 55h-86z M342 774h80q154 0 225 25q141 49 141 215q0 145 -116 200q-74 35 -242 35h-88v-475z" />
<glyph unicode="C" horiz-adv-x="1302" d="M109 682q0 311 204.5 513t522.5 202q207 0 426 -111l-68 -129q-195 100 -354 100q-246 0 -398.5 -161.5t-152.5 -421.5q0 -246 149.5 -408t378.5 -162q166 0 373 109l65 -119q-141 -74 -237 -100.5t-223 -26.5q-299 0 -492.5 202t-193.5 513z" />
<glyph unicode="D" horiz-adv-x="1425" d="M170 0l6 1370l307 4h25q301 0 481 -92q154 -80 244 -238.5t90 -351.5q0 -360 -272 -553q-115 -80 -235 -109.5t-335 -29.5h-311zM342 129h137q322 0 494 144.5t172 412.5q0 272 -166 414.5t-481 142.5h-150z" />
<glyph unicode="E" horiz-adv-x="995" d="M170 0l6 1366h711v-143h-545v-457h528v-139h-530v-486h561v-141h-731z" />
<glyph unicode="F" horiz-adv-x="976" d="M170 0l6 1366h731v-139h-561v-463h543v-139h-545l-2 -625h-172z" />
<glyph unicode="G" horiz-adv-x="1411" d="M109 674q0 319 207.5 520t537.5 201q172 0 391 -95l-61 -129q-184 88 -330 89q-248 0 -406.5 -166t-158.5 -422q0 -248 153.5 -408t393.5 -160q109 0 274 54l2 583h168l-4 -667q-229 -104 -453 -105q-319 0 -516.5 194.5t-197.5 510.5z" />
<glyph unicode="H" horiz-adv-x="1429" d="M170 0l6 1366h176l-2 -590h740l2 590h174l-6 -1366h-175l2 635h-739l-2 -635h-176z" />
<glyph unicode="I" horiz-adv-x="518" d="M170 0l6 1366h176l-6 -1366h-176z" />
<glyph unicode="J" horiz-adv-x="688" d="M27 -25v134h26q145 0 219 79q53 57 68 193q6 47 6 211l4 774h172l-2 -784q0 -229 -28 -324q-47 -152 -154 -217.5t-311 -65.5z" />
<glyph unicode="K" horiz-adv-x="1196" d="M170 0l6 1366h172l-4 -666l678 691l123 -107l-586 -577l592 -635l-135 -109l-672 733l-2 -696h-172z" />
<glyph unicode="L" horiz-adv-x="970" d="M170 0l6 1366h172l-4 -1225h590v-141h-764z" />
<glyph unicode="M" horiz-adv-x="1861" d="M88 14l240 1352h178l256 -690q12 -39 63 -182q35 -94 105 -330q39 158 80 270q47 133 90 242l274 690h178l220 -1352l-164 -28l-99 596q-6 31 -53 424q-10 78 -14 188q-41 -160 -123 -375l-309 -819h-164l-301 819q-55 150 -117 375q-10 -145 -25 -250q-25 -186 -53 -362 l-98 -596z" />
<glyph unicode="N" horiz-adv-x="1427" d="M170 0l6 1329l143 60l568 -801q154 -215 227 -363q-22 242 -22 436v17l2 688h168l-7 -1331l-143 -60l-565 799q-152 213 -228 369q21 -185 21 -382v-34l-4 -727h-166z" />
<glyph unicode="O" horiz-adv-x="1654" d="M109 680q0 307 204.5 512t511.5 205q317 0 522 -200t205 -509q0 -317 -204.5 -517t-530.5 -200q-309 0 -508.5 200t-199.5 509zM293 690q0 -256 151.5 -417.5t391.5 -161.5q229 0 381.5 163.5t152.5 409.5q0 250 -151.5 411.5t-384.5 161.5q-231 0 -386 -162.5 t-155 -404.5z" />
<glyph unicode="P" horiz-adv-x="1087" d="M170 0l6 1370l307 4q236 0 353 -63q186 -100 186 -340q0 -281 -274 -371q-98 -33 -304 -33h-102l-4 -567h-168zM342 696h109q197 0 276 45q121 68 121 222q0 168 -129 243q-70 41 -154 41h-221z" />
<glyph unicode="Q" horiz-adv-x="1652" d="M109 672q0 315 202.5 520t515.5 205q315 0 520 -201t205 -508q0 -365 -286 -582l321 -147l-90 -133l-377 201q-117 -55 -303 -56q-311 0 -509.5 197t-198.5 504zM293 690q0 -252 148.5 -415.5t375.5 -163.5q246 0 399.5 159.5t153.5 415.5q0 252 -150.5 413t-388.5 161 q-231 0 -384.5 -163t-153.5 -407z" />
<glyph unicode="R" horiz-adv-x="1189" d="M170 0l6 1364q205 8 316 8q262 0 370 -74q158 -106 158 -311q0 -145 -92 -240.5t-254 -119.5q86 -35 149 -113q25 -29 117 -147q63 -82 90 -119l139 -199l-139 -90l-135 193q-35 49 -168 223q-117 154 -164 184.5t-164 30.5h-57l-2 -590h-170zM344 717h125q174 0 254 41 q125 63 125 223q0 184 -174 244q-61 20 -207 20h-121z" />
<glyph unicode="S" horiz-adv-x="999" d="M94 82l74 123q162 -96 295 -96q115 0 190.5 67.5t75.5 171.5q0 92 -50 149.5t-183 116.5l-93 41q-280 125 -280 363q0 170 113.5 273.5t295.5 103.5q178 0 365 -105l-70 -119q-147 90 -280 91q-115 0 -185.5 -64.5t-70.5 -167.5q0 -145 182 -227l92 -41q127 -57 166 -81 t84 -71q94 -98 94 -241q0 -184 -119.5 -291t-326.5 -107q-102 0 -176 22.5t-193 88.5z" />
<glyph unicode="T" horiz-adv-x="1091" d="M31 1225v141h1044v-141h-432l-6 -1225h-172l4 1225h-438z" />
<glyph unicode="U" horiz-adv-x="1443" d="M174 627l4 739h174l-4 -739q0 -147 2 -183q8 -104 49 -174q89 -157 321 -157h3q268 0 344 198q33 88 35 316l4 739h174l-4 -739q0 -162 -8 -221q-12 -123 -64 -207q-63 -106 -191 -167t-292 -61q-328 0 -469 224q-57 92 -72 208q-6 55 -6 224z" />
<glyph unicode="V" horiz-adv-x="1294" d="M20 1325l166 64l287 -736q80 -207 101.5 -266t70.5 -215q94 274 180 481l305 736l158 -64l-567 -1325h-156z" />
<glyph unicode="W" horiz-adv-x="1984" d="M33 1335l170 47l225 -743q41 -135 82 -299q14 -57 31 -174q27 123 59 231q29 96 76 242l235 727h170l228 -735q18 -59 47 -170q25 -94 69 -295q20 109 58 237q49 174 69 236l248 743l164 -47l-459 -1335h-159l-246 778q-47 152 -80 271q-12 47 -27 147q-23 -94 -51 -195 q-35 -121 -70 -223l-256 -778h-159z" />
<glyph unicode="X" horiz-adv-x="1216" d="M35 61l471 646l-438 602l151 86l236 -328q27 -39 118 -184q8 -12 33 -60q78 131 162 244l242 328l143 -86l-444 -602l475 -646l-146 -94l-297 412q-80 111 -137 205q-66 -106 -135 -205l-295 -412z" />
<glyph unicode="Y" horiz-adv-x="1189" d="M18 1307l152 88l279 -432q76 -117 147 -254q57 109 156 254l288 432l142 -88l-502 -721l-4 -586h-172l2 575z" />
<glyph unicode="Z" horiz-adv-x="1101" d="M66 92l747 1131h-702v143h874l55 -92l-743 -1131h723v-143h-916z" />
<glyph unicode="[" horiz-adv-x="722" d="M156 -360l8 1843h416v-123h-267l-6 -1600h264v-120h-415z" />
<glyph unicode="\" horiz-adv-x="950" d="M76 1372l102 43l733 -1687l-104 -52z" />
<glyph unicode="]" horiz-adv-x="722" d="M150 -238h266l6 1600h-264v121h415l-8 -1843h-415v122z" />
<glyph unicode="^" d="M59 760l351 610h204l351 -610h-170l-285 485l-283 -485h-168z" />
<glyph unicode="_" d="M0 -141h1024v-117h-1024v117z" />
<glyph unicode="`" d="M319 1436h222l176 -283h-129z" />
<glyph unicode="a" horiz-adv-x="989" d="M88 254q0 317 574 358v60q0 115 -33 163t-109 48q-109 0 -291 -131l-61 98q150 98 226.5 131t162.5 33q135 0 196.5 -74t61.5 -235q0 -8 -2 -82l-10 -365v-18q0 -152 65 -152q25 0 80 39l43 -84q-109 -66 -172 -66q-145 0 -145 150v14q-135 -170 -316 -170 q-115 0 -192.5 82t-77.5 201zM248 262q0 -72 47 -120t117 -48q108 0 247 139v283q-197 -35 -272 -65q-139 -57 -139 -189z" />
<glyph unicode="b" horiz-adv-x="1093" d="M150 0l6 1483h157l-2 -639q109 170 291 170q178 0 293 -140.5t115 -357.5q0 -231 -125 -388t-307 -157q-152 0 -277 140l6 -111h-157zM309 266q100 -168 238 -168q125 0 210 117t85 291q0 166 -74 269.5t-193 103.5q-147 0 -266 -187v-426z" />
<glyph unicode="c" horiz-adv-x="886" d="M90 481q0 225 131 379t324 154q90 0 156.5 -35t156.5 -129l-96 -84q-106 119 -213 119q-127 0 -210 -113t-83 -285t80 -281.5t205 -109.5q111 0 229 129l86 -88q-96 -96 -168 -132t-174 -36q-180 0 -302 147.5t-122 364.5z" />
<glyph unicode="d" horiz-adv-x="1101" d="M90 469q0 229 128 387t314 158q164 0 265 -144l2 613h162l-7 -1483h-161l18 160q-102 -190 -307 -191q-180 0 -297 141.5t-117 358.5zM258 469q0 -160 78 -267.5t192 -107.5q148 0 267 197v422q-96 166 -238 166q-131 0 -215 -115t-84 -295z" />
<glyph unicode="e" horiz-adv-x="987" d="M90 465q0 238 127 392.5t322 154.5q368 0 372 -504h-655q-2 -12 -2 -29q0 -168 78 -274.5t200 -106.5q135 0 281 140l80 -86q-109 -102 -190.5 -141.5t-188.5 -39.5q-186 0 -305 138.5t-119 355.5zM270 618h482q-31 274 -213 275q-201 0 -269 -275z" />
<glyph unicode="f" horiz-adv-x="626" d="M27 862v115h188v86q0 424 356 424h29q23 -2 37 -2v-113h-43q-115 0 -166 -71.5t-51 -237.5v-86h258v-115h-258l-4 -862h-162l4 862h-188z" />
<glyph unicode="g" horiz-adv-x="1046" d="M45 -199q0 160 270 281l-73 14q-170 33 -170 115q0 68 231 215q-131 90 -131 250q0 150 97.5 244t250.5 94q94 0 182 -47l328 8v-113l-235 10q76 -84 75 -192q0 -143 -97 -237.5t-245 -94.5q-90 0 -166 41q-118 -85 -118 -122q0 -30 57 -48q12 -4 18 -4l43 -10l41 -10 l43 -9l189 -32q348 -61 348 -267q0 -156 -141.5 -260t-354.5 -104q-201 0 -321.5 75.5t-120.5 202.5zM201 -184q0 -86 78.5 -138.5t205.5 -52.5q143 0 239.5 67t96.5 163q0 123 -213 165l-194 39q-213 -123 -213 -243zM328 672q0 -96 54 -158.5t138 -62.5t140.5 63.5 t56.5 161.5q0 104 -52.5 164.5t-142.5 60.5q-84 0 -139 -64.5t-55 -164.5z" />
<glyph unicode="h" horiz-adv-x="1079" d="M150 0l6 1483h161l-4 -658q156 188 342 189q184 0 252 -142q33 -70 33 -260l-2 -612h-164l2 621q0 131 -26 180q-38 73 -137 73h-3q-131 0 -297 -174l-4 -700h-159z" />
<glyph unicode="i" horiz-adv-x="468" d="M152 0l4 983h168l-5 -983h-167zM154 1200v180h172v-180h-172z" />
<glyph unicode="j" horiz-adv-x="487" d="M-10 -358h33q80 0 114.5 58t34.5 191l6 1092h164l-4 -1092q0 -366 -320 -366h-2h-26v117zM172 1200v180h172v-180h-172z" />
<glyph unicode="k" horiz-adv-x="970" d="M150 0l6 1483h159l-6 -975l508 522l107 -100l-414 -414l424 -467l-123 -98l-502 555l-2 -506h-157z" />
<glyph unicode="l" horiz-adv-x="458" d="M150 0l6 1483h159l-6 -1483h-159z" />
<glyph unicode="m" horiz-adv-x="1650" d="M150 0l4 983h159l-14 -162q152 190 344 191q201 0 240 -191q170 190 358 191q274 0 272 -338l-4 -674h-163l4 674q2 196 -152 196h-2q-137 0 -285 -161l-4 -709h-162l5 659v5q0 208 -158 208q-125 0 -281 -163l-2 -709h-159z" />
<glyph unicode="n" horiz-adv-x="1081" d="M150 0l4 983h157l-8 -164q180 193 363 193q172 0 241 -140q35 -72 35 -219l-2 -653h-166l2 596q0 152 -22 197q-39 79 -141 79h-3q-72 0 -137 -36.5t-164 -133.5l-2 -702h-157z" />
<glyph unicode="o" horiz-adv-x="1112" d="M90 494q0 231 134 375.5t351 144.5q201 0 327 -142.5t126 -371.5q0 -236 -134 -382.5t-351 -146.5q-205 0 -329 143.5t-124 379.5zM258 492q0 -178 81 -286t216 -108t220 114t85 296q0 168 -83 275.5t-212 107.5q-135 0 -221 -111.5t-86 -287.5z" />
<glyph unicode="p" horiz-adv-x="1089" d="M147 -463l7 1446h155l-8 -152q127 180 303 181q172 0 287 -143.5t115 -356.5q0 -223 -125 -379t-308 -156q-154 0 -268 121l-2 -561h-156zM307 258q96 -156 238 -156q127 0 211 117t84 293q0 160 -77 262.5t-198 102.5q-70 0 -126 -40t-132 -143v-436z" />
<glyph unicode="q" horiz-adv-x="1095" d="M90 473q0 227 127 383t313 156q156 0 275 -154l-6 125h153l-6 -1446h-153l2 598q-106 -166 -291 -166q-184 0 -299 139.5t-115 364.5zM256 475q0 -168 78 -273.5t201 -105.5q78 0 136 44.5t126 150.5v416q-95 167 -244 167h-2q-125 0 -210 -114.5t-85 -284.5z" />
<glyph unicode="r" horiz-adv-x="661" d="M150 0l4 983h161l-10 -213q117 229 273 229q33 0 90 -16l-45 -141q-35 10 -56 10q-137 0 -254 -215l-4 -637h-159z" />
<glyph unicode="s" horiz-adv-x="772" d="M82 70l63 100q141 -72 222 -72q80 0 132 45t52 113q0 100 -168 168l-31 12q-252 100 -252 287q0 131 91.5 211t236.5 80q135 0 281 -84l-72 -101q-104 63 -203 64q-74 0 -126 -43t-52 -107q0 -109 137 -161l84 -33q232 -91 232 -277q0 -125 -94.5 -207.5t-235.5 -82.5 q-152 0 -297 88z" />
<glyph unicode="t" horiz-adv-x="671" d="M27 868v113h176v373h162v-373h264v-113h-267l-2 -575q0 -180 97 -180q51 0 155 61l50 -98q-135 -88 -248 -88q-119 0 -176 90q-39 61 -39 215l2 575h-174z" />
<glyph unicode="u" horiz-adv-x="1062" d="M143 332l2 651h166l-2 -668q0 -211 154 -211q70 0 131 38t164 145l2 696h158l-5 -983h-157l8 164q-104 -109 -178 -151t-164 -42q-176 0 -244 131q-35 63 -35 230z" />
<glyph unicode="v" horiz-adv-x="970" d="M37 963l164 49l198 -574q47 -133 82 -299q33 141 92 299l215 574l154 -49l-389 -963h-156z" />
<glyph unicode="w" horiz-adv-x="1517" d="M51 963l160 45l160 -607q37 -141 53 -256h8q23 117 68 256l186 582h160l164 -582q39 -141 53 -256h6q23 135 61 256l199 607l148 -45l-340 -963h-156l-182 637q-27 90 -33 174h-8q-14 -92 -43 -174l-217 -637h-156z" />
<glyph unicode="x" horiz-adv-x="935" d="M47 47l330 457l-316 430l140 86l266 -406l285 406l127 -86l-322 -430l334 -457l-143 -86l-283 430l-293 -430z" />
<glyph unicode="y" horiz-adv-x="962" d="M37 969l166 45l231 -652q37 -100 60 -221q20 133 51 221l235 652l156 -45l-444 -1121q-70 -174 -140.5 -248.5t-292.5 -76.5v117q117 2 159 25.5t79 107.5l104 241z" />
<glyph unicode="z" horiz-adv-x="884" d="M59 78l545 770h-506v135h699l34 -74l-548 -778h524v-131h-713z" />
<glyph unicode="{" d="M268 438v140q117 31 117 186v350q0 147 67.5 213t272.5 66q18 0 33 -2v-160q-115 -2 -155 -41t-40 -146v-307q0 -96 -24.5 -147t-87.5 -86q63 -35 87.5 -88.5t24.5 -149.5v-303q0 -113 40 -151.5t155 -40.5v-154h-33q-213 0 -276.5 69.5t-63.5 235.5v322q0 88 -25.5 131 t-91.5 63z" />
<glyph unicode="|" d="M422 -342v1708h182v-1708h-182z" />
<glyph unicode="}" d="M266 -221q115 2 155 40t40 144v309q0 96 24.5 147.5t87.5 86.5q-63 35 -87.5 88t-24.5 149v301q0 113 -40 152t-155 43v154h33q213 0 276.5 -70t63.5 -236v-321q0 -90 26.5 -133t92.5 -62v-139q-119 -31 -119 -186v-350q0 -147 -67.5 -213t-272.5 -66h-33v162z" />
<glyph unicode="~" horiz-adv-x="1366" d="M193 1255q109 238 282 238q78 0 236 -78q133 -66 186 -65q98 0 182 147l97 -76q-106 -233 -299 -233q-35 0 -74 12q-16 4 -170 76q-111 53 -166 53q-94 0 -180 -149z" />
<glyph unicode="&#xa1;" horiz-adv-x="557" d="M195 -389l4 1042h166l-5 -1042h-165zM197 801v182h174v-182h-174z" />
<glyph unicode="&#xa2;" horiz-adv-x="1146" d="M221 682q0 217 124 361.5t310 144.5h35l27 133l74 -16l-27 -136q94 -33 186 -133l-90 -78q-63 66 -121 93l-147 -717q41 -10 57 -10q102 0 219 122l78 -81q-90 -92 -156.5 -125t-160.5 -33q-14 0 -60 4l-34 -162l-72 14l33 166q-274 137 -275 453zM379 694 q0 -229 143 -329l144 702q-127 0 -207 -104.5t-80 -268.5z" />
<glyph unicode="&#xa3;" horiz-adv-x="1146" d="M92 0v123q162 18 216 126.5t57 424.5h-256v110h258q4 319 125.5 462t388.5 143q31 0 141 -7v-127q-2 0 -41 2.5t-68 2.5q-205 0 -288.5 -106.5t-85.5 -369.5h454v-110h-454q-4 -258 -47 -374t-154 -177q119 12 172 12h516v-135h-934z" />
<glyph unicode="&#xa4;" horiz-adv-x="1415" d="M129 1178l96 96l197 -195q154 98 291 99q129 0 278 -99l197 195l96 -96l-192 -193q98 -145 98 -287q0 -131 -94 -282l192 -193l-96 -98l-193 192q-137 -98 -280 -98q-139 0 -299 98l-191 -190l-96 96l189 193q-94 131 -95 284q0 127 99 283zM389 698q0 -133 94.5 -227 t227.5 -94q131 0 225 94t94 227q0 135 -93 230.5t-226 95.5t-227.5 -95t-94.5 -231z" />
<glyph unicode="&#xa5;" horiz-adv-x="1146" d="M2 1313l150 82l278 -434q68 -106 148 -254q55 104 153 254l289 434l139 -82l-274 -395h207v-113h-285l-111 -162h336v-111h-377l-2 -532h-164l3 532h-377v111h334l-107 162h-283v113h207z" />
<glyph unicode="&#xa6;" d="M422 313h182v-655h-182v655zM422 676v690h182v-690h-182z" />
<glyph unicode="&#xa7;" horiz-adv-x="1054" d="M113 569q0 172 219 250q-96 47 -136 101.5t-40 142.5q0 139 109.5 230t275.5 91q176 0 374 -116l-69 -109q-152 96 -285 96q-100 0 -167.5 -50t-67.5 -126q0 -70 44 -108.5t152 -71.5l193 -57q125 -37 179 -89.5t54 -134.5q0 -162 -200 -258q182 -70 182 -249 q0 -135 -121 -228.5t-297 -93.5q-184 0 -367 123l68 108q150 -98 289 -98q117 0 187.5 47t70.5 125q0 66 -47 107t-160 75l-193 58q-248 74 -247 235zM264 604q0 -53 40 -86t153 -67l180 -58l63 41q91 57 91 137q0 100 -170 152l-218 65l-49 -36q-90 -68 -90 -148z" />
<glyph unicode="&#xa8;" d="M256 1194v178h172v-178h-172zM606 1194v178h172v-178h-172z" />
<glyph unicode="&#xa9;" horiz-adv-x="1599" d="M94 684q0 293 207 500t502 207q291 0 496.5 -207t205.5 -500t-205.5 -501t-496.5 -208q-293 0 -501 208t-208 501zM188 684q0 -258 179.5 -440.5t433.5 -182.5q252 0 431 182.5t179 440.5q0 256 -178 438.5t-432 182.5t-433.5 -182.5t-179.5 -438.5zM416 680 q0 188 108.5 306t282.5 118q145 0 244.5 -79t111.5 -204h-90q-45 182 -268 183q-123 0 -199 -89.5t-76 -234.5q0 -137 77 -224t198 -87q117 0 190.5 62.5t87.5 174.5h93q-10 -154 -111.5 -246t-259.5 -92q-172 0 -280.5 115t-108.5 297z" />
<glyph unicode="&#xaa;" horiz-adv-x="710" d="M63 600v86h605v-86h-605zM70 952q0 84 59 127q45 33 117 43q8 2 22 2l64 9l33 2q8 0 59 14q37 12 45 21.5t8 39.5q0 104 -135 105q-127 0 -139 -123h-103q12 201 248 201q74 0 130.5 -25t72.5 -63q27 -70 31 -88.5t4 -96.5v-170q0 -102 37 -149h-123q-14 31 -17 90 q-53 -61 -88 -82q-45 -25 -116 -25q-98 0 -153.5 45t-55.5 123zM170 956q0 -100 127 -100q84 0 134 57.5t50 153.5v33q-25 -14 -41 -18.5t-125 -14.5q-145 -14 -145 -111z" />
<glyph unicode="&#xab;" horiz-adv-x="901" d="M78 506l315 377l74 -47l-227 -330l223 -322l-74 -53zM416 506l315 377l72 -47l-225 -330l223 -322l-74 -53z" />
<glyph unicode="&#xac;" d="M68 412v159h886v-571h-176v412h-710z" />
<glyph unicode="&#xad;" horiz-adv-x="454" d="M2 444v148h455v-148h-455z" />
<glyph unicode="&#xae;" horiz-adv-x="1599" d="M94 684q0 293 207 500t500 207q291 0 497.5 -207t206.5 -500t-206.5 -501t-497.5 -208q-293 0 -500 208t-207 501zM188 684q0 -258 179.5 -440.5t433.5 -182.5t432 182.5t178 440.5q0 256 -179 438.5t-431 182.5q-254 0 -433.5 -182.5t-179.5 -438.5zM498 276v805h338 q285 0 284 -221q0 -141 -143 -196q80 -29 103.5 -74t29.5 -184q4 -95 20 -130h-110q-14 29 -21.5 151t-47.5 160t-156 38h-183v-349h-114zM612 698h187q207 0 207 160q0 147 -191 148h-203v-308z" />
<glyph unicode="&#xaf;" d="M244 1231v110h547v-110h-547z" />
<glyph unicode="&#xb0;" d="M217 1067q0 123 86 209t209 86t208 -86t85 -211q0 -121 -86 -207t-209 -86q-121 0 -207 87t-86 208zM299 1063q0 -82 63.5 -145.5t145.5 -63.5q90 0 152.5 62.5t62.5 150.5t-62.5 150.5t-150.5 62.5t-149.5 -63.5t-61.5 -153.5z" />
<glyph unicode="&#xb1;" d="M43 104v95h938v-95h-938zM43 678v94h420v397h98v-397h420v-94h-420v-389h-98v389h-420z" />
<glyph unicode="&#xb2;" horiz-adv-x="761" d="M68 623q236 180 335 291.5t99 203.5q0 68 -46 109t-124 41q-84 0 -189 -78l-65 80q143 100 274 100q127 0 204 -65.5t77 -174.5q0 -147 -189 -327q-119 -115 -184 -158l64 4h321v-102h-551z" />
<glyph unicode="&#xb3;" horiz-adv-x="761" d="M84 606l53 90q117 -59 193 -59q86 0 139 39t53 102q0 143 -221 144q-20 0 -94 -4v100h65q242 0 242 135q0 55 -47 90t-121 35q-82 0 -188 -57l-58 82q137 74 267 73q121 0 197.5 -58t76.5 -153q0 -139 -135 -188q66 -16 105.5 -69.5t39.5 -125.5q0 -109 -89 -177 t-228 -68q-102 0 -250 69z" />
<glyph unicode="&#xb4;" d="M319 1153l177 283h221l-268 -283h-130z" />
<glyph unicode="&#xb6;" horiz-adv-x="1153" d="M66 1001q0 221 180 316q94 49 266 49h489v-78h-118v-1519h-97v1519h-217v-1519h-96v874h-33q-164 0 -269 100.5t-105 257.5z" />
<glyph unicode="&#xb7;" horiz-adv-x="557" d="M186 422v190h181v-190h-181z" />
<glyph unicode="&#xb8;" d="M303 -389l41 78q76 -39 137 -39q102 0 103 80q0 80 -101 80q-33 0 -65 -21l-31 41l121 170h84l-92 -129q33 8 63 8q63 0 108.5 -39t45.5 -96q0 -80 -60.5 -129t-160.5 -49q-86 0 -193 45z" />
<glyph unicode="&#xb9;" horiz-adv-x="761" d="M145 1128l287 238h96l-2 -819h-125l5 670l-35 -33l-156 -129z" />
<glyph unicode="&#xba;" horiz-adv-x="710" d="M53 600v86h604v-86h-604zM66 1087q0 137 81.5 221.5t214.5 84.5q123 0 203 -86t80 -217q0 -139 -80 -222.5t-213 -83.5q-127 0 -206.5 85t-79.5 218zM176 1092q0 -106 47 -167t131 -61q181 1 181 228q0 100 -48.5 160.5t-128.5 60.5q-84 0 -133 -60.5t-49 -160.5z" />
<glyph unicode="&#xbb;" horiz-adv-x="901" d="M102 180l226 328l-224 321l74 54l314 -375l-316 -377zM440 180l226 328l-224 321l74 54l311 -375l-313 -377z" />
<glyph unicode="&#xbc;" horiz-adv-x="1720" d="M145 1128l287 238h96l-2 -819h-125l5 670l-35 -33l-156 -129zM506 2l627 1419l90 -51l-627 -1415zM1016 285l407 534h125l-4 -516h129v-96h-129v-207h-121v207h-381zM1151 301h14q20 2 41 2h219v307l5 66q-20 -33 -41 -60l-187 -249q-18 -23 -51 -66z" />
<glyph unicode="&#xbd;" horiz-adv-x="1720" d="M145 1128l287 238h96l-2 -819h-125l5 670l-35 -33l-156 -129zM506 2l627 1419l90 -51l-627 -1415zM1024 76q233 176 333.5 290.5t100.5 204.5q0 68 -46 109t-124 41q-82 0 -188 -78l-64 80q139 100 273 100q127 0 203.5 -65.5t76.5 -173.5q0 -147 -188 -328 q-111 -106 -184 -158l63 4h322v-102h-551z" />
<glyph unicode="&#xbe;" horiz-adv-x="1720" d="M84 606l53 90q117 -59 193 -59q86 0 139 39t53 102q0 143 -221 144q-20 0 -94 -4v100h65q242 0 242 135q0 55 -47 90t-121 35q-82 0 -188 -57l-58 82q137 74 267 73q121 0 197.5 -58t76.5 -153q0 -139 -135 -188q66 -16 105.5 -69.5t39.5 -125.5q0 -109 -89 -177 t-228 -68q-102 0 -250 69zM506 2l627 1419l88 -51l-627 -1415zM1014 285l407 534h125l-4 -516h131v-96h-131v-207h-121v207h-381zM1149 301h14q20 2 41 2h219v307l4 66q-20 -33 -41 -60l-186 -249q-18 -23 -51 -66z" />
<glyph unicode="&#xbf;" horiz-adv-x="962" d="M96 -29q0 139 101 252q-2 2 84 74l45 35l45 37q68 55 81 95t15 185h166q0 -162 -23 -217q-25 -61 -92 -119l-43 -37l-43 -34l-43 -37q-125 -106 -125 -232q0 -106 80 -177.5t197 -71.5q147 0 297 129l84 -93q-98 -92 -186.5 -130t-205.5 -38q-188 0 -311 107.5 t-123 271.5zM455 799v184h178v-184h-178z" />
<glyph unicode="&#xc0;" horiz-adv-x="1300" d="M14 25l574 1341h155l545 -1341l-166 -54l-188 484h-561l-205 -484zM430 598h447l-119 307q-70 180 -101 318q-14 -63 -41 -144q-31 -92 -63 -174zM459 1765h221l176 -282h-129z" />
<glyph unicode="&#xc1;" horiz-adv-x="1300" d="M14 25l574 1341h155l545 -1341l-166 -54l-188 484h-561l-205 -484zM430 598h447l-119 307q-70 180 -101 318q-14 -63 -41 -144q-31 -92 -63 -174zM459 1483l176 282h221l-268 -282h-129z" />
<glyph unicode="&#xc2;" horiz-adv-x="1300" d="M14 25l574 1341h155l545 -1341l-166 -54l-188 484h-561l-205 -484zM383 1483l192 278h162l193 -278h-150l-129 188l-123 -188h-145zM430 598h447l-119 307q-70 180 -101 318q-14 -63 -41 -144q-31 -92 -63 -174z" />
<glyph unicode="&#xc3;" horiz-adv-x="1300" d="M14 25l574 1341h155l545 -1341l-166 -54l-188 484h-561l-205 -484zM381 1518q18 203 176 202q45 0 107 -22l38 -15q49 -18 82 -18q53 0 68 80h84q-10 -203 -170 -203q-35 0 -96 19l-41 12q-76 23 -92 22q-57 0 -74 -77h-82zM430 598h447l-119 307q-70 180 -101 318 q-14 -63 -41 -144q-31 -92 -63 -174z" />
<glyph unicode="&#xc4;" horiz-adv-x="1300" d="M14 25l574 1341h155l545 -1341l-166 -54l-188 484h-561l-205 -484zM391 1542v184h178v-184h-178zM430 598h447l-119 307q-70 180 -101 318q-14 -63 -41 -144q-31 -92 -63 -174zM764 1542v184h178v-184h-178z" />
<glyph unicode="&#xc5;" horiz-adv-x="1300" d="M14 25l574 1341h155l545 -1341l-166 -54l-188 484h-561l-205 -484zM430 598h447l-119 307q-70 180 -101 318q-14 -63 -41 -144q-31 -92 -63 -174zM469 1649q0 78 54.5 131t135.5 57q84 4 144.5 -51t60.5 -137t-56 -135.5t-140 -53.5q-88 0 -143.5 52.5t-55.5 136.5z M547 1647q0 -47 34.5 -81t86.5 -34q47 0 81.5 34t34.5 79q0 51 -34.5 85.5t-81.5 34.5q-51 0 -86 -33.5t-35 -84.5z" />
<glyph unicode="&#xc6;" horiz-adv-x="1742" d="M-2 51l870 1315h764v-137h-540v-463h538v-139h-540v-486h561v-141h-729v461h-465l-318 -490zM543 596h379v395q0 121 14 238q-31 -55 -105.5 -180t-107.5 -177z" />
<glyph unicode="&#xc7;" horiz-adv-x="1302" d="M109 682q0 311 204.5 513t522.5 202q207 0 426 -111l-68 -129q-193 100 -354 100q-246 0 -398.5 -161.5t-152.5 -421.5q0 -246 149.5 -408t378.5 -162q166 0 373 109l65 -119q-127 -66 -202 -90q-96 -31 -217 -35l-72 -98q41 8 61 8q70 0 113 -40t43 -103 q0 -72 -61.5 -121t-151.5 -49q-98 0 -199 47l43 78q68 -39 136 -39q102 0 102 78q0 80 -94 80q-43 0 -72 -17l-29 35l99 141q-287 16 -466 214t-179 499z" />
<glyph unicode="&#xc8;" horiz-adv-x="995" d="M170 0l6 1366h711v-143h-545v-457h528v-139h-530v-486h561v-141h-731zM305 1765h221l176 -282h-129z" />
<glyph unicode="&#xc9;" horiz-adv-x="995" d="M170 0l6 1366h711v-143h-545v-457h528v-139h-530v-486h561v-141h-731zM305 1483l176 282h221l-268 -282h-129z" />
<glyph unicode="&#xca;" horiz-adv-x="995" d="M170 0l6 1366h711v-143h-545v-457h528v-139h-530v-486h561v-141h-731zM229 1483l193 278h162l192 -278h-149l-129 188l-123 -188h-146z" />
<glyph unicode="&#xcb;" horiz-adv-x="995" d="M170 0l6 1366h711v-143h-545v-457h528v-139h-530v-486h561v-141h-731zM229 1542v184h179v-184h-179zM602 1542v184h178v-184h-178z" />
<glyph unicode="&#xcc;" horiz-adv-x="518" d="M68 1765h221l176 -282h-129zM170 0l6 1366h176l-6 -1366h-176z" />
<glyph unicode="&#xcd;" horiz-adv-x="518" d="M68 1483l176 282h221l-268 -282h-129zM170 0l6 1366h176l-6 -1366h-176z" />
<glyph unicode="&#xce;" horiz-adv-x="518" d="M-8 1483l192 278h162l193 -278h-150l-129 188l-123 -188h-145zM170 0l6 1366h176l-6 -1366h-176z" />
<glyph unicode="&#xcf;" horiz-adv-x="518" d="M72 1522v180h145v-180h-145zM170 0l6 1366h176l-6 -1366h-176zM311 1522v180h148v-180h-148z" />
<glyph unicode="&#xd0;" horiz-adv-x="1425" d="M27 666v92h147l2 612l307 4q319 4 506 -92q154 -80 244 -239.5t90 -352.5q0 -360 -272 -551q-115 -80 -236 -109.5t-334 -29.5h-311l4 666h-147zM344 129h137q319 0 491.5 144.5t172.5 412.5q0 272 -165 414.5t-480 142.5h-152v-485h293v-92h-295z" />
<glyph unicode="&#xd1;" horiz-adv-x="1427" d="M170 0l6 1329l143 60l568 -801q154 -215 227 -363q-23 252 -22 453l2 688h168l-7 -1331l-143 -60l-565 799q-152 213 -228 369q23 -201 21 -416l-4 -727h-166zM442 1518q18 203 176 202q45 0 107 -22l39 -15q49 -18 82 -18q53 0 67 80h84q-10 -203 -170 -203 q-35 0 -96 19l-41 12q-76 23 -92 22q-57 0 -74 -77h-82z" />
<glyph unicode="&#xd2;" horiz-adv-x="1654" d="M109 680q0 307 204.5 512t511.5 205q317 0 522 -200t205 -509q0 -317 -204.5 -517t-530.5 -200q-309 0 -508.5 200t-199.5 509zM293 690q0 -256 151.5 -417.5t391.5 -161.5q229 0 381.5 163.5t152.5 409.5q0 250 -151.5 411.5t-384.5 161.5q-231 0 -386 -162.5 t-155 -404.5zM637 1765h221l176 -282h-129z" />
<glyph unicode="&#xd3;" horiz-adv-x="1654" d="M109 680q0 307 204.5 512t511.5 205q317 0 522 -200t205 -509q0 -317 -204.5 -517t-530.5 -200q-309 0 -508.5 200t-199.5 509zM293 690q0 -256 151.5 -417.5t391.5 -161.5q229 0 381.5 163.5t152.5 409.5q0 250 -151.5 411.5t-384.5 161.5q-231 0 -386 -162.5 t-155 -404.5zM637 1483l176 282h221l-268 -282h-129z" />
<glyph unicode="&#xd4;" horiz-adv-x="1654" d="M109 680q0 307 204.5 512t511.5 205q317 0 522 -200t205 -509q0 -317 -204.5 -517t-530.5 -200q-309 0 -508.5 200t-199.5 509zM293 690q0 -256 151.5 -417.5t391.5 -161.5q229 0 381.5 163.5t152.5 409.5q0 250 -151.5 411.5t-384.5 161.5q-231 0 -386 -162.5 t-155 -404.5zM561 1483l193 278h161l193 -278h-150l-129 188l-122 -188h-146z" />
<glyph unicode="&#xd5;" horiz-adv-x="1654" d="M109 680q0 307 204.5 512t511.5 205q317 0 522 -200t205 -509q0 -317 -204.5 -517t-530.5 -200q-309 0 -508.5 200t-199.5 509zM293 690q0 -256 151.5 -417.5t391.5 -161.5q229 0 381.5 163.5t152.5 409.5q0 250 -151.5 411.5t-384.5 161.5q-231 0 -386 -162.5 t-155 -404.5zM557 1518q18 203 176 202q45 0 107 -22l39 -15q49 -18 82 -18q53 0 67 80h84q-10 -203 -170 -203q-35 0 -96 19l-41 12q-76 23 -92 22q-57 0 -74 -77h-82z" />
<glyph unicode="&#xd6;" horiz-adv-x="1654" d="M109 680q0 307 204.5 512t511.5 205q317 0 522 -200t205 -509q0 -317 -204.5 -517t-530.5 -200q-309 0 -508.5 200t-199.5 509zM293 690q0 -256 151.5 -417.5t391.5 -161.5q229 0 381.5 163.5t152.5 409.5q0 250 -151.5 411.5t-384.5 161.5q-231 0 -386 -162.5 t-155 -404.5zM586 1542v184h178v-184h-178zM958 1542v184h179v-184h-179z" />
<glyph unicode="&#xd7;" d="M121 381l323 324l-321 319l67 68l320 -322l324 324l67 -70l-323 -322l323 -321l-67 -68l-322 324l-322 -324z" />
<glyph unicode="&#xd8;" horiz-adv-x="1656" d="M109 678q0 315 205.5 516t529.5 201q125 0 219 -30t213 -108l135 156l68 -57l-136 -152q211 -223 211 -518q0 -311 -205.5 -513t-521.5 -202q-248 0 -444 138l-139 -160l-66 51l144 164q-213 199 -213 514zM293 678q0 -223 135 -387l746 848q-147 117 -336 116 q-240 0 -392.5 -161.5t-152.5 -415.5zM492 231q154 -121 344 -120q231 0 382.5 161.5t151.5 409.5q0 219 -135 395z" />
<glyph unicode="&#xd9;" horiz-adv-x="1443" d="M174 627l4 739h174l-4 -739q0 -147 2 -183q8 -104 49 -174q90 -158 324 -157q268 0 344 198q33 88 35 316l4 739h174l-4 -739q0 -162 -8 -221q-12 -123 -64 -207q-63 -106 -191 -167t-292 -61q-328 0 -469 224q-57 92 -72 208q-6 55 -6 224zM528 1765h222l176 -282h-129z " />
<glyph unicode="&#xda;" horiz-adv-x="1443" d="M174 627l4 739h174l-4 -739q0 -147 2 -183q8 -104 49 -174q90 -158 324 -157q268 0 344 198q33 88 35 316l4 739h174l-4 -739q0 -162 -8 -221q-12 -123 -64 -207q-63 -106 -191 -167t-292 -61q-328 0 -469 224q-57 92 -72 208q-6 55 -6 224zM528 1483l177 282h221 l-269 -282h-129z" />
<glyph unicode="&#xdb;" horiz-adv-x="1443" d="M174 627l4 739h174l-4 -739q0 -147 2 -183q8 -104 49 -174q90 -158 324 -157q268 0 344 198q33 88 35 316l4 739h174l-4 -739q0 -162 -8 -221q-12 -123 -64 -207q-63 -106 -191 -167t-292 -61q-328 0 -469 224q-57 92 -72 208q-6 55 -6 224zM455 1483l192 278h162 l192 -278h-149l-129 188l-123 -188h-145z" />
<glyph unicode="&#xdc;" horiz-adv-x="1443" d="M174 627l4 739h174l-4 -739q0 -147 2 -183q8 -104 49 -174q90 -158 324 -157q268 0 344 198q33 88 35 316l4 739h174l-4 -739q0 -162 -8 -221q-12 -123 -64 -207q-63 -106 -191 -167t-292 -61q-328 0 -469 224q-57 92 -72 208q-6 55 -6 224zM461 1542v184h178v-184h-178z M834 1542v184h178v-184h-178z" />
<glyph unicode="&#xdd;" horiz-adv-x="1189" d="M18 1307l152 88l279 -432q76 -117 147 -254q57 109 156 254l288 432l142 -88l-502 -721l-4 -586h-172l2 575zM403 1483l177 282h221l-269 -282h-129z" />
<glyph unicode="&#xde;" horiz-adv-x="1148" d="M131 0v1366h180v-164h326q217 0 341 -110.5t124 -303.5q0 -184 -121 -294.5t-322 -110.5h-348v-383h-180zM311 526h287q324 1 324 265q0 262 -312 262h-299v-527z" />
<glyph unicode="&#xdf;" horiz-adv-x="1091" d="M150 0l4 1024q2 463 413 463q129 0 209 -66.5t80 -175.5q0 -115 -96 -221l-37 -41q-61 -68 -61 -98q0 -27 94 -119l71 -70q109 -106 151 -181t42 -165q0 -158 -120 -261t-304 -103q-31 0 -102 6l10 121q6 -2 22 -2q37 -2 62 -2q111 0 186.5 63.5t75.5 155.5 q0 68 -27.5 120t-105.5 134l-133 139q-78 82 -78 137q0 49 59 131l64 88q66 90 65 166q0 57 -41 94t-104 37q-106 0 -166.5 -83t-63.5 -230l-10 -1061h-159z" />
<glyph unicode="&#xe0;" horiz-adv-x="989" d="M88 254q0 317 574 358v60q0 115 -33 163t-109 48q-109 0 -291 -131l-61 98q150 98 226.5 131t162.5 33q135 0 196.5 -74t61.5 -235q0 -8 -2 -82l-10 -365q-4 -170 65 -170q25 0 80 39l43 -84q-109 -66 -172 -66q-145 0 -145 150v14q-135 -170 -316 -170q-115 0 -192.5 82 t-77.5 201zM248 262q0 -72 47 -120t117 -48q108 0 247 139v283q-197 -35 -272 -65q-139 -57 -139 -189zM301 1436h221l176 -283h-129z" />
<glyph unicode="&#xe1;" horiz-adv-x="989" d="M88 254q0 317 574 358v60q0 115 -33 163t-109 48q-109 0 -291 -131l-61 98q150 98 226.5 131t162.5 33q135 0 196.5 -74t61.5 -235q0 -8 -2 -82l-10 -365q-4 -170 65 -170q25 0 80 39l43 -84q-109 -66 -172 -66q-145 0 -145 150v14q-135 -170 -316 -170q-115 0 -192.5 82 t-77.5 201zM248 262q0 -72 47 -120t117 -48q108 0 247 139v283q-197 -35 -272 -65q-139 -57 -139 -189zM301 1153l176 283h221l-268 -283h-129z" />
<glyph unicode="&#xe2;" horiz-adv-x="989" d="M88 254q0 317 574 358v60q0 115 -33 163t-109 48q-109 0 -291 -131l-61 98q150 98 226.5 131t162.5 33q135 0 196.5 -74t61.5 -235q0 -8 -2 -82l-10 -365q-4 -170 65 -170q25 0 80 39l43 -84q-109 -66 -172 -66q-145 0 -145 150v14q-135 -170 -316 -170q-115 0 -192.5 82 t-77.5 201zM225 1151l193 281h162l192 -281h-149l-129 190l-123 -190h-146zM248 262q0 -72 47 -120t117 -48q108 0 247 139v283q-197 -35 -272 -65q-139 -57 -139 -189z" />
<glyph unicode="&#xe3;" horiz-adv-x="989" d="M88 254q0 317 574 358v60q0 115 -33 163t-109 48q-109 0 -291 -131l-61 98q150 98 226.5 131t162.5 33q135 0 196.5 -74t61.5 -235q0 -8 -2 -82l-10 -365q-4 -170 65 -170q25 0 80 39l43 -84q-109 -66 -172 -66q-145 0 -145 150v14q-135 -170 -316 -170q-115 0 -192.5 82 t-77.5 201zM223 1214q18 205 176 205q45 0 107 -22l39 -15q49 -18 82 -18q53 0 67 80h84q-10 -205 -170 -205q-35 0 -96 18l-41 13q-76 23 -92 22q-57 0 -74 -78h-82zM248 262q0 -72 47 -120t117 -48q108 0 247 139v283q-197 -35 -272 -65q-139 -57 -139 -189z" />
<glyph unicode="&#xe4;" horiz-adv-x="989" d="M88 254q0 317 574 358v60q0 115 -33 163t-109 48q-109 0 -291 -131l-61 98q150 98 226.5 131t162.5 33q135 0 196.5 -74t61.5 -235q0 -8 -2 -82l-10 -365q-4 -170 65 -170q25 0 80 39l43 -84q-109 -66 -172 -66q-145 0 -145 150v14q-135 -170 -316 -170q-115 0 -192.5 82 t-77.5 201zM248 262q0 -72 47 -120t117 -48q108 0 247 139v283q-197 -35 -272 -65q-139 -57 -139 -189zM260 1194v178h172v-178h-172zM610 1194v178h172v-178h-172z" />
<glyph unicode="&#xe5;" horiz-adv-x="989" d="M88 254q0 317 574 358v60q0 115 -33 163t-109 48q-109 0 -291 -131l-61 98q150 98 226.5 131t162.5 33q135 0 196.5 -74t61.5 -235q0 -8 -2 -82l-10 -365q-4 -170 65 -170q25 0 80 39l43 -84q-109 -66 -172 -66q-145 0 -145 150v14q-135 -170 -316 -170q-115 0 -192.5 82 t-77.5 201zM248 262q0 -72 47 -120t117 -48q108 0 247 139v283q-197 -35 -272 -65q-139 -57 -139 -189zM348 1309q0 84 56.5 143t138.5 59q86 0 143 -58t57 -144q0 -80 -58 -136.5t-142 -56.5q-78 0 -136.5 57.5t-58.5 135.5zM428 1311q0 -45 35 -80t80 -35q51 0 86 34 t35 85q0 47 -35 82t-84 35q-51 0 -84 -34t-33 -87z" />
<glyph unicode="&#xe6;" horiz-adv-x="1558" d="M88 254q0 311 565 354q0 31 -2 80q-2 104 -31.5 148.5t-95.5 44.5q-96 0 -284 -131l-72 92q233 170 391 170q190 0 217 -187q135 186 328 187q184 0 281.5 -130t95.5 -374h-682q0 -164 53 -258q86 -147 242 -148q133 0 270 129l78 -84q-180 -178 -373 -178 q-233 0 -348 199q-123 -117 -189.5 -154t-156.5 -37q-123 0 -205 79t-82 198zM248 266q0 -70 47 -116t117 -46q127 0 262 156q-27 88 -27 184q0 20 6 76q-215 -43 -278 -76q-127 -66 -127 -178zM805 614h524q-37 276 -233 277q-219 0 -291 -277z" />
<glyph unicode="&#xe7;" horiz-adv-x="886" d="M90 481q0 225 131 379t324 154q90 0 156.5 -35t156.5 -129l-96 -84q-106 119 -213 119q-127 0 -210 -113t-83 -287q0 -172 80 -281.5t205 -109.5q109 0 229 131l86 -88q-88 -90 -145.5 -121.5t-157.5 -44.5l-74 -100q49 8 64 8q63 0 108 -39t45 -96q0 -80 -60.5 -129 t-160.5 -49q-88 0 -192 45l41 78q76 -39 137 -39q102 0 102 80t-100 80q-33 0 -66 -21l-30 41l102 141q-172 29 -275.5 168.5t-103.5 341.5z" />
<glyph unicode="&#xe8;" horiz-adv-x="987" d="M90 465q0 238 127 392.5t322 154.5q368 0 372 -504h-655q-2 -12 -2 -29q0 -168 78 -274.5t200 -106.5q135 0 281 140l80 -86q-109 -102 -190.5 -141.5t-188.5 -39.5q-186 0 -305 138.5t-119 355.5zM270 618h482q-31 274 -213 275q-201 0 -269 -275zM301 1436h221 l176 -283h-129z" />
<glyph unicode="&#xe9;" horiz-adv-x="987" d="M90 465q0 238 127 392.5t322 154.5q368 0 372 -504h-655q-2 -12 -2 -29q0 -168 78 -274.5t200 -106.5q135 0 281 140l80 -86q-109 -102 -190.5 -141.5t-188.5 -39.5q-186 0 -305 138.5t-119 355.5zM270 618h482q-31 274 -213 275q-201 0 -269 -275zM301 1153l176 283h221 l-268 -283h-129z" />
<glyph unicode="&#xea;" horiz-adv-x="987" d="M90 465q0 238 127 392.5t322 154.5q368 0 372 -504h-655q-2 -12 -2 -29q0 -168 78 -274.5t200 -106.5q135 0 281 140l80 -86q-109 -102 -190.5 -141.5t-188.5 -39.5q-186 0 -305 138.5t-119 355.5zM225 1151l193 281h162l192 -281h-149l-129 190l-123 -190h-146zM270 618 h482q-31 274 -213 275q-201 0 -269 -275z" />
<glyph unicode="&#xeb;" horiz-adv-x="987" d="M90 465q0 238 127 392.5t322 154.5q368 0 372 -504h-655q-2 -12 -2 -29q0 -168 78 -274.5t200 -106.5q135 0 281 140l80 -86q-109 -102 -190.5 -141.5t-188.5 -39.5q-186 0 -305 138.5t-119 355.5zM240 1194v178h172v-178h-172zM270 618h482q-31 274 -213 275 q-201 0 -269 -275zM590 1194v178h172v-178h-172z" />
<glyph unicode="&#xec;" horiz-adv-x="468" d="M41 1436h221l176 -283h-129zM152 0l4 983h168l-5 -983h-167z" />
<glyph unicode="&#xed;" horiz-adv-x="468" d="M41 1153l176 283h221l-268 -283h-129zM152 0l4 983h168l-5 -983h-167z" />
<glyph unicode="&#xee;" horiz-adv-x="468" d="M-33 1151l193 281h162l192 -281h-149l-129 190l-123 -190h-146zM154 0l4 983h168l-4 -983h-168z" />
<glyph unicode="&#xef;" horiz-adv-x="468" d="M47 1192v180h146v-180h-146zM154 0l4 983h168l-4 -983h-168zM287 1192v180h147v-180h-147z" />
<glyph unicode="&#xf0;" horiz-adv-x="1085" d="M72 483q0 219 120.5 352.5t319.5 133.5q23 0 137 -37q57 -18 94 -51q-66 121 -117 179t-145 128l-192 -141l-43 63l168 119q-102 61 -193 88l31 67l143 -51q37 -12 105 -43l196 140l43 -62l-161 -115q178 -113 264 -223q172 -223 172 -512q0 -250 -130 -399.5 t-347 -149.5q-211 0 -338 141.5t-127 372.5zM240 479q0 -178 81.5 -283.5t219.5 -105.5q143 0 224 110.5t81 305.5q0 176 -76 275.5t-209 99.5q-150 0 -235.5 -107.5t-85.5 -294.5z" />
<glyph unicode="&#xf1;" horiz-adv-x="1081" d="M150 0l4 983h157l-8 -164q180 193 363 193q172 0 241 -140q35 -72 35 -219l-2 -653h-166l2 596q0 152 -22 197q-39 80 -144 79q-72 0 -137 -36.5t-164 -133.5l-2 -702h-157zM268 1214q18 205 176 205q45 0 107 -22l39 -15q49 -18 82 -18q53 0 67 80h84 q-10 -205 -170 -205q-35 0 -96 18l-41 13q-76 23 -92 22q-57 0 -74 -78h-82z" />
<glyph unicode="&#xf2;" horiz-adv-x="1112" d="M90 494q0 231 134 375.5t351 144.5q201 0 327 -142.5t126 -371.5q0 -236 -134 -382.5t-351 -146.5q-205 0 -329 143.5t-124 379.5zM258 492q0 -178 81 -286t216 -108t220 114t85 296q0 168 -83 275.5t-212 107.5q-135 0 -221 -111.5t-86 -287.5zM365 1436h221l176 -283 h-129z" />
<glyph unicode="&#xf3;" horiz-adv-x="1112" d="M90 494q0 231 134 375.5t351 144.5q201 0 327 -142.5t126 -371.5q0 -236 -134 -382.5t-351 -146.5q-205 0 -329 143.5t-124 379.5zM258 492q0 -178 81 -286t216 -108t220 114t85 296q0 168 -83 275.5t-212 107.5q-135 0 -221 -111.5t-86 -287.5zM365 1153l176 283h221 l-268 -283h-129z" />
<glyph unicode="&#xf4;" horiz-adv-x="1112" d="M90 494q0 231 134 375.5t351 144.5q201 0 327 -142.5t126 -371.5q0 -236 -134 -382.5t-351 -146.5q-205 0 -329 143.5t-124 379.5zM258 492q0 -178 81 -286t216 -108t220 114t85 296q0 168 -83 275.5t-212 107.5q-135 0 -221 -111.5t-86 -287.5zM289 1151l192 281h162 l193 -281h-150l-129 190l-123 -190h-145z" />
<glyph unicode="&#xf5;" horiz-adv-x="1112" d="M90 494q0 231 134 375.5t351 144.5q201 0 327 -142.5t126 -371.5q0 -236 -134 -382.5t-351 -146.5q-205 0 -329 143.5t-124 379.5zM258 492q0 -178 81 -286t216 -108t220 114t85 296q0 168 -83 275.5t-212 107.5q-135 0 -221 -111.5t-86 -287.5zM285 1214q18 205 176 205 q45 0 106 -22l39 -15q49 -18 82 -18q53 0 68 80h84q-10 -205 -170 -205q-35 0 -97 18l-41 13q-76 23 -92 22q-57 0 -73 -78h-82z" />
<glyph unicode="&#xf6;" horiz-adv-x="1112" d="M90 494q0 231 134 375.5t351 144.5q201 0 327 -142.5t126 -371.5q0 -236 -134 -382.5t-351 -146.5q-205 0 -329 143.5t-124 379.5zM258 492q0 -178 81 -286t216 -108t220 114t85 296q0 168 -83 275.5t-212 107.5q-135 0 -221 -111.5t-86 -287.5zM311 1194v178h172v-178 h-172zM662 1194v178h172v-178h-172z" />
<glyph unicode="&#xf7;" d="M43 655v95h938v-95h-938zM426 330q0 35 25.5 59.5t60.5 24.5t59.5 -24.5t24.5 -59.5t-24.5 -60.5t-59.5 -25.5t-60.5 25.5t-25.5 60.5zM426 1079q0 35 25.5 59.5t60.5 24.5t59.5 -24.5t24.5 -59.5t-24.5 -60.5t-59.5 -25.5t-60.5 25.5t-25.5 60.5z" />
<glyph unicode="&#xf8;" horiz-adv-x="1110" d="M57 -16l142 157q-111 145 -111 346q0 236 133 381.5t350 145.5q160 0 289 -107l133 156l62 -53l-140 -160q109 -147 109 -340q0 -240 -133 -386.5t-350 -146.5q-166 0 -289 107l-133 -154zM254 494q0 -123 47 -236l465 541q-94 92 -197 92q-139 0 -227 -110.5t-88 -286.5 zM346 195q96 -96 203 -97q135 0 222 112t87 286q0 125 -47 235z" />
<glyph unicode="&#xf9;" horiz-adv-x="1062" d="M143 332l2 651h166l-2 -668q0 -211 154 -211q70 0 131 38t164 145l2 696h158l-5 -983h-157l8 164q-104 -109 -178 -151t-164 -42q-176 0 -244 131q-35 63 -35 230zM338 1436h221l176 -283h-129z" />
<glyph unicode="&#xfa;" horiz-adv-x="1062" d="M143 332l2 651h166l-2 -668q0 -211 154 -211q70 0 131 38t164 145l2 696h158l-5 -983h-157l8 164q-104 -109 -178 -151t-164 -42q-176 0 -244 131q-35 63 -35 230zM338 1153l176 283h221l-268 -283h-129z" />
<glyph unicode="&#xfb;" horiz-adv-x="1062" d="M143 332l2 651h166l-2 -668q0 -211 154 -211q70 0 131 38t164 145l2 696h158l-5 -983h-157l8 164q-104 -109 -178 -151t-164 -42q-176 0 -244 131q-35 63 -35 230zM262 1151l193 281h161l193 -281h-150l-129 190l-122 -190h-146z" />
<glyph unicode="&#xfc;" horiz-adv-x="1062" d="M143 332l2 651h166l-2 -668q0 -211 154 -211q70 0 131 38t164 145l2 696h158l-5 -983h-157l8 164q-104 -109 -178 -151t-164 -42q-176 0 -244 131q-35 63 -35 230zM295 1194v178h172v-178h-172zM645 1194v178h172v-178h-172z" />
<glyph unicode="&#xfd;" horiz-adv-x="962" d="M37 969l166 45l231 -652q37 -100 60 -221q20 133 51 221l235 652l156 -45l-444 -1121q-70 -174 -140.5 -248.5t-292.5 -76.5v117q117 2 159 25.5t79 107.5l104 241zM289 1153l176 283h221l-268 -283h-129z" />
<glyph unicode="&#xfe;" horiz-adv-x="1138" d="M127 -334v1700h160v-604q109 246 354 246q190 0 307 -141.5t117 -372.5q0 -238 -115.5 -381.5t-310.5 -143.5q-119 0 -211 61.5t-137 170.5v-535h-164zM289 469q0 -170 82 -271.5t219 -101.5q145 0 227 104.5t82 286.5q0 172 -83 277.5t-220 105.5q-143 0 -225 -107.5 t-82 -293.5z" />
<glyph unicode="&#xff;" horiz-adv-x="962" d="M37 969l166 45l231 -652q37 -100 60 -221q20 133 51 221l235 652l156 -45l-444 -1121q-70 -174 -140.5 -248.5t-292.5 -76.5v117q117 2 159 25.5t79 107.5l104 241zM225 1194v178h172v-178h-172zM575 1194v178h173v-178h-173z" />
<glyph unicode="&#x152;" horiz-adv-x="2000" d="M109 674q0 324 172 522.5t454 198.5q162 0 274.5 -60.5t213.5 -204.5l-6 236h681v-143h-514v-457h496v-141h-500v-484h529v-141h-699l17 246q-158 -274 -486 -275q-279 0 -455.5 197t-176.5 506zM289 698q0 -272 124 -430.5t337 -158.5t342 160.5t129 424.5 q0 248 -129 401.5t-338 153.5t-337 -151.5t-128 -399.5z" />
<glyph unicode="&#x153;" horiz-adv-x="1773" d="M90 496q0 225 135 371.5t344 146.5q250 0 367 -240q150 240 379 240q180 0 281.5 -132t101.5 -370h-686v-49q0 -150 83 -252t203 -102q164 0 279 127l82 -84q-115 -98 -194 -134t-183 -36q-244 0 -358 225q-72 -121 -159 -173t-222 -52q-205 0 -329 141t-124 373z M258 481q0 -168 81 -273.5t212 -105.5q135 0 222 112t87 284q0 176 -81 284.5t-212 108.5q-139 0 -224 -112.5t-85 -297.5zM1020 618h522q-31 276 -231 277q-225 0 -291 -277z" />
<glyph unicode="&#x178;" horiz-adv-x="1189" d="M18 1307l152 88l279 -432q76 -117 147 -254q57 109 156 254l288 432l142 -88l-502 -721l-4 -586h-172l2 575zM328 1542v184h178v-184h-178zM700 1542v184h179v-184h-179z" />
<glyph unicode="&#x2c6;" d="M244 1151l192 281h162l193 -281h-150l-129 190l-123 -190h-145z" />
<glyph unicode="&#x2dc;" d="M240 1214q18 205 176 205q45 0 106 -22l39 -15q49 -18 82 -18q53 0 68 80h84q-10 -205 -170 -205q-35 0 -97 18l-41 13q-76 23 -92 22q-57 0 -73 -78h-82z" />
<glyph unicode="&#x2000;" horiz-adv-x="918" />
<glyph unicode="&#x2001;" horiz-adv-x="1837" />
<glyph unicode="&#x2002;" horiz-adv-x="918" />
<glyph unicode="&#x2003;" horiz-adv-x="1837" />
<glyph unicode="&#x2004;" horiz-adv-x="612" />
<glyph unicode="&#x2005;" horiz-adv-x="459" />
<glyph unicode="&#x2006;" horiz-adv-x="306" />
<glyph unicode="&#x2007;" horiz-adv-x="306" />
<glyph unicode="&#x2008;" horiz-adv-x="229" />
<glyph unicode="&#x2009;" horiz-adv-x="367" />
<glyph unicode="&#x200a;" horiz-adv-x="102" />
<glyph unicode="&#x2010;" horiz-adv-x="454" d="M2 444v148h455v-148h-455z" />
<glyph unicode="&#x2011;" horiz-adv-x="454" d="M2 444v148h455v-148h-455z" />
<glyph unicode="&#x2012;" horiz-adv-x="454" d="M2 444v148h455v-148h-455z" />
<glyph unicode="&#x2013;" horiz-adv-x="1077" d="M145 444v148h791v-148h-791z" />
<glyph unicode="&#x2014;" horiz-adv-x="1357" d="M2 444v148h1358v-148h-1358z" />
<glyph unicode="&#x2018;" horiz-adv-x="493" d="M141 950l123 480h72v-480h-195z" />
<glyph unicode="&#x2019;" horiz-adv-x="493" d="M170 950v480h195l-123 -480h-72z" />
<glyph unicode="&#x201a;" horiz-adv-x="544" d="M176 -289l2 479h205l-141 -479h-66z" />
<glyph unicode="&#x201c;" horiz-adv-x="837" d="M141 979l123 479h72v-479h-195zM485 979l123 479h72v-479h-195z" />
<glyph unicode="&#x201d;" horiz-adv-x="837" d="M170 950v480h195l-123 -480h-72zM514 950v480h195l-123 -480h-72z" />
<glyph unicode="&#x201e;" horiz-adv-x="837" d="M162 -291l2 479h192l-123 -479h-71zM506 -291l4 479h192l-122 -479h-74z" />
<glyph unicode="&#x2022;" horiz-adv-x="1366" d="M401 696q0 117 84 200t203 83q115 0 198 -83t83 -200t-83 -200.5t-198 -83.5q-119 0 -203 83t-84 201z" />
<glyph unicode="&#x2026;" horiz-adv-x="1636" d="M182 0v190h180v-190h-180zM727 0v190h180v-190h-180zM1274 0v190h180v-190h-180z" />
<glyph unicode="&#x202f;" horiz-adv-x="367" />
<glyph unicode="&#x2039;" horiz-adv-x="565" d="M78 506l315 377l74 -47l-227 -330l223 -322l-74 -53z" />
<glyph unicode="&#x203a;" horiz-adv-x="563" d="M102 180l226 328l-224 321l74 54l314 -375l-316 -377z" />
<glyph unicode="&#x205f;" horiz-adv-x="459" />
<glyph unicode="&#x2122;" horiz-adv-x="1912" d="M31 1270v96h663v-96h-268l-4 -723h-123l4 723h-272zM784 557l152 809h123l160 -412q66 -170 96 -274q39 133 98 276l172 410h123l139 -809l-118 -20l-62 358q-12 78 -33 250q-2 18 -6 63q-18 -63 -63 -174l-195 -487h-113l-188 487q-27 70 -59 178q-12 -129 -45 -317 l-64 -358z" />
<glyph unicode="&#xe000;" d="M0 0v1024h1024v-1024h-1024z" />
</font>
</defs>
</svg>
