<?xml version="1.0" encoding="utf-8"?>
<!-- Generator: Adobe Illustrator 15.0.0, SVG Export Plug-In . SVG Version: 6.00 Build 0)  -->
<!DOCTYPE svg PUBLIC "-//W3C//DTD SVG 1.1//EN" "http://www.w3.org/Graphics/SVG/1.1/DTD/svg11.dtd">
<svg version="1.1" id="Ebene_1" xmlns="http://www.w3.org/2000/svg" xmlns:xlink="http://www.w3.org/1999/xlink" x="0px" y="0px"
	 width="800px" height="200px" viewBox="0 0 800 200" enable-background="new 0 0 800 200" xml:space="preserve">
<g>
	<path d="M281.634,139.891c-6.797,8.738-15.415,11.895-23.79,11.895c-26.703,0-42.604-20.026-42.604-45.031
		c0-25.731,15.9-45.759,42.604-45.759c17.721,0,34.593,10.803,36.535,30.587h-18.207c-2.307-9.71-9.225-14.565-18.328-14.565
		c-17.114,0-23.547,14.565-23.547,29.737c0,14.444,6.434,29.01,23.547,29.01c12.502,0,19.542-6.555,20.634-18.692h-19.178V102.87
		h36.414v46.853h-12.138L281.634,139.891z"/>
	<path d="M384.677,116.95c0,23.427-13.837,34.835-37.02,34.835c-23.426,0-36.898-11.166-36.898-34.835V63.059h19.056v53.892
		c0,9.468,2.427,18.813,17.842,18.813c13.595,0,17.964-5.826,17.964-18.813V63.059h19.056V116.95z"/>
	<path d="M401.057,63.059h26.825l20.27,59.597h0.243l19.177-59.597h26.824v86.664h-17.842V88.305h-0.242l-21.242,61.417h-14.687
		l-21.241-60.811h-0.242v60.811h-17.843V63.059z"/>
	<path d="M511.139,63.059h40.784c16.507,0,27.674,5.341,27.674,21.484c0,8.617-4.128,14.322-11.774,18.085
		c10.681,3.034,15.9,11.167,15.9,21.97c0,17.6-14.929,25.125-30.587,25.125h-41.997V63.059z M530.195,98.137h19.299
		c6.797,0,11.652-3.035,11.652-10.317c0-8.133-6.312-9.953-13.107-9.953h-17.844V98.137z M530.195,134.914h20.392
		c7.404,0,14.08-2.428,14.08-11.41c0-8.859-5.462-12.38-13.716-12.38h-20.756V134.914z"/>
	<path d="M635.424,60.995c26.703,0,42.604,20.027,42.604,45.759c0,25.005-15.9,45.031-42.604,45.031s-42.604-20.026-42.604-45.031
		C592.82,81.022,608.721,60.995,635.424,60.995z M635.424,135.764c17.113,0,23.548-14.565,23.548-29.01
		c0-15.171-6.435-29.737-23.548-29.737c-17.114,0-23.548,14.565-23.548,29.737C611.876,121.198,618.31,135.764,635.424,135.764z"/>
	<path d="M691.009,63.059h18.935l36.17,58.14h0.243v-58.14h17.843v86.664h-19.057l-36.049-58.019h-0.242v58.019h-17.843V63.059z"/>
	<path d="M780.943,63.059H800v86.664h-19.057V63.059z"/>
</g>
<g>
	<g>
		<path d="M100,20c44.112,0,80,35.888,80,80s-35.888,80-80,80s-80-35.888-80-80S55.888,20,100,20 M100,0C44.771,0,0,44.771,0,100
			c0,55.229,44.771,100,100,100c55.229,0,100-44.771,100-100C200,44.771,155.229,0,100,0L100,0z"/>
	</g>
	<rect x="80" y="90" fill="#009688" width="86" height="20"/>
	<path fill="#009688" d="M148.994,90c0.659,3.232,1.006,6.576,1.006,10c0,27.57-22.43,50-50,50s-50-22.43-50-50s22.43-50,50-50
		c16.323,0,30.842,7.864,39.973,20h23.293C152.041,46.343,127.95,30,100,30c-38.691,0-70,31.309-70,70s31.309,70,70,70
		s70-31.309,70-70c0-3.397-0.254-6.733-0.721-10H148.994z"/>
</g>
</svg>
